<?xml version="1.0" encoding="iso-8859-1"?>

<svg xmlns="http://www.w3.org/2000/svg" viewBox="0 0 104 24" fill="none" id="icon-alipay-plus-checkout">
   
   
    <g clip-path="url(#icon-alipay-plus-checkout_clip0_1226_143663)">
        <path
            d="M76.859 23.996h-2.19a.676.676 0 0 1-.62-.943l1.768-4.112a.36.36 0 0 0 .002-.277L70.5 5.866a.676.676 0 0 1 .622-.942h2.175c.547 0 1.04.33 1.25.835l3.213 8.114a.14.14 0 0 0 .26.002l3.368-8.136a1.353 1.353 0 0 1 1.242-.815h2.187c.486 0 .814.499.62.945l-7.336 17.313c-.275.635-.462.849-1.242.815v-.001zM37.496 23.324V5.602c0-.372.302-.674.674-.674h2.316c.372 0 .674.302.674.674v1.306c0 .145.19.192.261.066.872-1.538 2.647-2.103 4.355-2.103 3.552 0 6.854 3.02 6.854 7.414 0 4.391-3.273 7.357-6.826 7.357-1.247 0-3.355-.354-4.397-1.764-.078-.106-.247-.049-.247.083v5.363a.674.674 0 0 1-.674.674H38.17a.674.674 0 0 1-.674-.674zm7.637-6.871c2.239 0 3.917-1.594 3.917-4.168s-1.678-4.196-3.917-4.196c-1.986 0-3.973 1.622-3.973 4.196s1.986 4.168 3.973 4.168zM68.475 19.299h-2.333a.678.678 0 0 1-.678-.678v-1.183c0-.141-.185-.19-.259-.069-.908 1.504-2.517 2.308-4.388 2.308-3.577 0-6.899-2.97-6.899-7.39s3.322-7.463 6.9-7.463c1.719 0 3.506.568 4.383 2.118.071.126.262.078.262-.067v-1.27c0-.374.304-.678.678-.678h2.333c.374 0 .678.304.678.678V18.62a.678.678 0 0 1-.678.679h.001zm-3.01-7.013c0-2.59-2-4.224-4-4.224-2.253 0-3.943 1.632-3.943 4.224 0 2.592 1.69 4.197 3.943 4.197 2 0 4-1.605 4-4.197zM27.283.002h-2.44a.678.678 0 0 0-.679.678v17.938c0 .375.304.678.678.678h2.441a.678.678 0 0 0 .678-.678V.68a.678.678 0 0 0-.678-.678zM33.949 4.928h-2.44a.678.678 0 0 0-.679.678v13.016c0 .375.304.678.678.678h2.441a.678.678 0 0 0 .678-.678V5.606a.678.678 0 0 0-.678-.678zM33.949.002h-2.44a.678.678 0 0 0-.679.678v2.442c0 .374.304.678.678.678h2.441a.678.678 0 0 0 .678-.678V.68a.678.678 0 0 0-.678-.678z"
            fill="#06F"></path>
        <path
            d="M101.648 4.926h-.826c-.241.028-.284.038-.603.104-1.508.31-2.713 1.116-3.543 3.42h3.858c.253 0 .482-.152.58-.385l1.02-2.406a.528.528 0 0 0-.486-.733z"
            fill="#00B5FF"></path>
        <path
            d="M100.165 4.932c-3.74.113-7.21 2.908-7.836 6.75l-.167.952c-.068.386.23.74.622.74h2.26a.63.63 0 0 0 .618-.51l.356-1.82c.182-1.028.403-1.881.659-2.593.83-2.302 2.035-3.107 3.543-3.42.319-.066.362-.076.603-.103 0 0-.589.003-.657.005l-.001-.001z"
            fill="#06F"></path>
        <path
            d="M87.794 8.447h.826c.241-.028.284-.037.603-.103 1.508-.312 2.713-1.117 3.543-3.42h-3.858a.629.629 0 0 0-.58.384l-1.02 2.406a.528.528 0 0 0 .486.733z"
            fill="#00B5FF"></path>
        <path
            d="M89.277 8.442c3.74-.113 7.21-2.908 7.837-6.75L97.28.74A.631.631 0 0 0 96.66 0h-2.261a.63.63 0 0 0-.618.51l-.356 1.82c-.182 1.028-.403 1.881-.659 2.593-.83 2.302-2.035 3.107-3.543 3.42-.319.065-.362.076-.603.103 0 0 .59-.003.657-.005h.001zM11.313 5.56c.12-.3.547-.299.668.003.941 2.358 5.223 13.029 5.223 13.029.14.39.501.703.98.703h2.62a.489.489 0 0 0 .455-.667c-1.183-2.933-6.152-14.72-7.544-18.033a.978.978 0 0 0-.902-.593h-2.336a.974.974 0 0 0-.9.594C8.262 3.717 3.215 15.703 2.033 18.632a.486.486 0 0 0 .453.663h2.521c.468 0 .905-.246 1.08-.703l5.226-13.031z"
            fill="#06F"></path>
        <path
            d="M23.396 7.844c-.284-.66-.719-1.554-1.109-2.068-.217-.286-.528-.362-.925-.28-5.037 1.04-8.787 3.383-10.295 4.906-2.327 2.348-2.309 4.608-.85 5.908-.497-.971.223-2.325 2.34-3.758 3.938-2.666 10.4-3.908 10.414-3.91a.583.583 0 0 0 .425-.799v.001z"
            fill="url(#icon-alipay-plus-checkout_paint0_linear_1226_143663)"></path>
        <path
            d="M10.306 14.788c-.288.566-.314 1.083-.09 1.52.605.56 2.243 1.392 6.584 1.276l-.837-2.086c-1.943.208-4.623.28-5.657-.71z"
            fill="url(#icon-alipay-plus-checkout_paint1_linear_1226_143663)"></path>
    </g>
    <defs>
        <linearGradient id="icon-alipay-plus-checkout_paint0_linear_1226_143663" x1="4.834" y1="16.481" x2="19.145"
            y2="8.219" gradientUnits="userSpaceOnUse">
            <stop stop-color="#0055EF"></stop>
            <stop offset=".1" stop-color="#0057F1"></stop>
            <stop offset=".18" stop-color="#0060FA"></stop>
            <stop offset=".2" stop-color="#06F"></stop>
            <stop offset=".36" stop-color="#006BFF"></stop>
            <stop offset=".56" stop-color="#007CFF"></stop>
            <stop offset=".8" stop-color="#0097FF"></stop>
            <stop offset="1" stop-color="#00B5FF"></stop>
        </linearGradient>
        <linearGradient id="icon-alipay-plus-checkout_paint1_linear_1226_143663" x1="9.071" y1="14.562" x2="17.44"
            y2="17.607" gradientUnits="userSpaceOnUse">
            <stop stop-color="#000ABD"></stop>
            <stop offset=".11" stop-color="#0013C0"></stop>
            <stop offset=".31" stop-color="#002DCA"></stop>
            <stop offset=".55" stop-color="#0058DB"></stop>
            <stop offset=".84" stop-color="#0092F1"></stop>
            <stop offset="1" stop-color="#00B5FF"></stop>
        </linearGradient>
        <clipPath id="icon-alipay-plus-checkout_clip0_1226_143663">
            <path fill="#fff" transform="translate(2)" d="M0 0h100.176v24H0z"></path>
        </clipPath>
    </defs>
</svg>