<svg xmlns="http://www.w3.org/2000/svg" fill="none" viewBox="0 0 40 26">
    <path fill="#2CA3DC" d="M0 0H40V26H0z" />
    <path fill="#fff"
        d="M14.198 14.129a5.1 5.1 0 0 1 3.028-.256c1.196.277 2.357.705 3.447 1.275a7.5 7.5 0 0 1-3.127 2.414c-.919.35-1.93.378-2.87.1a2.53 2.53 0 0 1-1.375-.969 1.64 1.64 0 0 1-.228-1.31 1.95 1.95 0 0 1 1.125-1.254M13.621 4h13.263c.905.1 1.717.605 2.209 1.368.249.384.391.819.42 1.275v9.58c-.67-.135-1.34-.306-1.988-.513-1.388-.406-2.749-.919-4.117-1.396a14.2 14.2 0 0 0 1.546-3.803c-1.218.007-2.436 0-3.654 0 0-.428-.007-.848 0-1.276 1.489.008 2.985 0 4.473.008-.007-.243.007-.485-.007-.727-1.489.014-2.977 0-4.466.007 0-.712-.007-1.417 0-2.13-.62.007-1.24-.007-1.852.007a.3.3 0 0 0-.214.086.3.3 0 0 0-.085.214c-.007.605 0 1.218 0 1.823h-4.516c-.007.242 0 .477 0 .72 1.503-.008 3.013 0 4.516-.008v1.276c-1.247.007-2.493-.008-3.74.007.014.235.007.47.007.712 2.415 0 4.837.007 7.252 0-.257.84-.592 1.652-1.012 2.422a.09.09 0 0 1-.05.05c-.021.007-.05 0-.071-.015a20.8 20.8 0 0 0-4.88-1.068 4.78 4.78 0 0 0-2.77.62 3.15 3.15 0 0 0-1.46 2.108 2.89 2.89 0 0 0 .683 2.458 3.92 3.92 0 0 0 2.522 1.21 6.47 6.47 0 0 0 3.683-.69 9.2 9.2 0 0 0 2.756-2.173c.072-.071.129-.178.221-.214 2.38 1.083 4.801 2.08 7.223 3.07a2.69 2.69 0 0 1-.677 1.98A3 3 0 0 1 26.95 22H13.557a2.99 2.99 0 0 1-2.044-1.225A2.9 2.9 0 0 1 11 19.45V6.55a3 3 0 0 1 .705-1.56A3.08 3.08 0 0 1 13.621 4" />
</svg>