<svg width="60" height="40" viewBox="0 0 60 40" xmlns="http://www.w3.org/2000/svg"><g fill="none" fill-rule="evenodd"><path d="M0 0h60v40H0z"/><g fill="#1677FF"><path d="M6.778 25.533c-3.3-.006-4.417-2.887-2.85-4.781.34-.413.921-.806 1.821-1.026 1.408-.342 3.647.221 5.745.915a11.47 11.47 0 0 0 .935-2.269l-6.469-.01.001-.654 3.336.005.002-1.17-4.04-.007v-.654l4.04.007.003-1.671s0-.282.287-.281l1.63.003-.003 1.952 3.994.006-.001.654-3.994-.007-.002 1.171 3.26.006a13.288 13.288 0 0 1-1.386 3.475c.989.358 1.877.698 2.538.92 2.184.733 2.83.831 2.921.843v-.007l.014-8.546a2.645 2.645 0 0 0-2.645-2.647l-11.243-.018a2.646 2.646 0 0 0-2.654 2.638L2 25.59a2.646 2.646 0 0 0 2.646 2.647l11.243.018a2.645 2.645 0 0 0 2.653-2.638v-.108c-.156-.065-4.34-1.815-6.47-2.84-1.46 1.785-3.342 2.867-5.294 2.864Z"/><path d="M6.029 20.704c-.414.04-1.19.222-1.615.595-1.273 1.104-.516 3.126 2.058 3.13 1.495.003 2.992-.948 4.169-2.473-1.67-.816-3.083-1.4-4.612-1.252"/></g><path d="M49.18 15.865h6.308v1.249h2.253v-1.489a.6.6 0 0 0-.584-.606h-3.646v-1.165h-2.358v1.165h-4.225v2.095h2.252v-1.249Zm-13.648-1.903-2.31 5.463h1.773v6.5h1.937v-8.623h-.702l1.46-3.34zM58 25.627l-.707-2.391a.37.37 0 0 0-.35-.263h-1.876l.544 1.837h-2.206v-3.557h4.33v-.848h-4.33v-1.673h4.33v-.848H46.929v.848h4.33v1.673h-4.33v.848h4.33v3.557h-4.33v.846H58l-.01-.029H58ZM40.488 18.44a.448.448 0 0 0-.399-.255h-1.677l1.306 4.115h1.985l-1.215-3.86Z" fill="#3E3A39"/><path d="M44.734 14.061H42.72v2.104h-4.963v.847h4.963v7.565a.348.348 0 0 1-.324.316h-1.024v.878h2.61a.795.795 0 0 0 .752-.786v-7.972h.817v-.848h-.817V14.06Zm-12.565 3.833H28.3v-1.386h4.486v-.863H28.3v-1.757h-1.999a.404.404 0 0 0-.397.411v1.346H21.45v.863h4.454v1.386h-3.758v.863h7.487s-.414 1.62-2.469 3.362c-1.84-1.394-2.454-2.504-2.454-2.504H22.7c.812 1.409 1.967 2.537 3.21 3.431-1.142.743-2.623 1.46-4.538 2.031v1.034s2.954-.558 5.81-2.24c2.86 1.67 5.733 2.24 5.733 2.24v-.979c-1.838-.669-3.294-1.405-4.438-2.115 1.657-1.228 3.108-2.894 3.69-5.123" fill="#3E3A39"/></g></svg>